<svg width="80" height="80" viewBox="0 0 80 80" fill="none" xmlns="http://www.w3.org/2000/svg">
<rect width="80" height="80" rx="8" fill="#AFF8C8"/>
<path d="M28.3333 55C27.4167 55 26.6319 54.6736 25.9792 54.0208C25.3264 53.3681 25 52.5833 25 51.6667V28.3333C25 27.4167 25.3264 26.6319 25.9792 25.9792C26.6319 25.3264 27.4167 25 28.3333 25H51.6667C52.5833 25 53.3681 25.3264 54.0208 25.9792C54.6736 26.6319 55 27.4167 55 28.3333V32.5H51.6667V28.3333H28.3333V51.6667H51.6667V47.5H55V51.6667C55 52.5833 54.6736 53.3681 54.0208 54.0208C53.3681 54.6736 52.5833 55 51.6667 55H28.3333ZM41.6667 48.3333C40.75 48.3333 39.9653 48.0069 39.3125 47.3542C38.6597 46.7014 38.3333 45.9167 38.3333 45V35C38.3333 34.0833 38.6597 33.2986 39.3125 32.6458C39.9653 31.9931 40.75 31.6667 41.6667 31.6667H53.3333C54.25 31.6667 55.0347 31.9931 55.6875 32.6458C56.3403 33.2986 56.6667 34.0833 56.6667 35V45C56.6667 45.9167 56.3403 46.7014 55.6875 47.3542C55.0347 48.0069 54.25 48.3333 53.3333 48.3333H41.6667ZM53.3333 45V35H41.6667V45H53.3333ZM46.6667 42.5C47.3611 42.5 47.9514 42.2569 48.4375 41.7708C48.9236 41.2847 49.1667 40.6944 49.1667 40C49.1667 39.3056 48.9236 38.7153 48.4375 38.2292C47.9514 37.7431 47.3611 37.5 46.6667 37.5C45.9722 37.5 45.3819 37.7431 44.8958 38.2292C44.4097 38.7153 44.1667 39.3056 44.1667 40C44.1667 40.6944 44.4097 41.2847 44.8958 41.7708C45.3819 42.2569 45.9722 42.5 46.6667 42.5Z" fill="#00423C"/>
</svg>
