<svg width="124" height="124" viewBox="0 0 124 124" fill="none" xmlns="http://www.w3.org/2000/svg">
<rect x="70" width="54" height="54" rx="8" fill="#AFF8C8"/>
<path d="M89 35V33H91.75L91.35 32.65C90.4833 31.8833 89.875 31.0083 89.525 30.025C89.175 29.0417 89 28.05 89 27.05C89 25.2 89.5542 23.5542 90.6625 22.1125C91.7708 20.6708 93.2167 19.7167 95 19.25V21.35C93.8 21.7833 92.8333 22.5208 92.1 23.5625C91.3667 24.6042 91 25.7667 91 27.05C91 27.8 91.1417 28.5292 91.425 29.2375C91.7083 29.9458 92.15 30.6 92.75 31.2L93 31.45V29H95V35H89ZM99 34.75V32.65C100.2 32.2167 101.167 31.4792 101.9 30.4375C102.633 29.3958 103 28.2333 103 26.95C103 26.2 102.858 25.4708 102.575 24.7625C102.292 24.0542 101.85 23.4 101.25 22.8L101 22.55V25H99V19H105V21H102.25L102.65 21.35C103.467 22.1667 104.062 23.0542 104.438 24.0125C104.812 24.9708 105 25.95 105 26.95C105 28.8 104.446 30.4458 103.338 31.8875C102.229 33.3292 100.783 34.2833 99 34.75Z" fill="#00423C"/>
<rect x="70" y="70" width="54" height="54" rx="8" fill="#AFF8C8"/>
<path d="M89 105V103H91.75L91.35 102.65C90.4833 101.883 89.875 101.008 89.525 100.025C89.175 99.0417 89 98.05 89 97.05C89 95.2 89.5542 93.5542 90.6625 92.1125C91.7708 90.6708 93.2167 89.7167 95 89.25V91.35C93.8 91.7833 92.8333 92.5208 92.1 93.5625C91.3667 94.6042 91 95.7667 91 97.05C91 97.8 91.1417 98.5292 91.425 99.2375C91.7083 99.9458 92.15 100.6 92.75 101.2L93 101.45V99H95V105H89ZM99 104.75V102.65C100.2 102.217 101.167 101.479 101.9 100.438C102.633 99.3958 103 98.2333 103 96.95C103 96.2 102.858 95.4708 102.575 94.7625C102.292 94.0542 101.85 93.4 101.25 92.8L101 92.55V95H99V89H105V91H102.25L102.65 91.35C103.467 92.1667 104.062 93.0542 104.438 94.0125C104.812 94.9708 105 95.95 105 96.95C105 98.8 104.446 100.446 103.338 101.887C102.229 103.329 100.783 104.283 99 104.75Z" fill="#00423C"/>
<rect y="35" width="54" height="54" rx="8" fill="#AFF8C8"/>
<path d="M19 70V68H21.75L21.35 67.65C20.4833 66.8833 19.875 66.0083 19.525 65.025C19.175 64.0417 19 63.05 19 62.05C19 60.2 19.5542 58.5542 20.6625 57.1125C21.7708 55.6708 23.2167 54.7167 25 54.25V56.35C23.8 56.7833 22.8333 57.5208 22.1 58.5625C21.3667 59.6042 21 60.7667 21 62.05C21 62.8 21.1417 63.5292 21.425 64.2375C21.7083 64.9458 22.15 65.6 22.75 66.2L23 66.45V64H25V70H19ZM29 69.75V67.65C30.2 67.2167 31.1667 66.4792 31.9 65.4375C32.6333 64.3958 33 63.2333 33 61.95C33 61.2 32.8583 60.4708 32.575 59.7625C32.2917 59.0542 31.85 58.4 31.25 57.8L31 57.55V60H29V54H35V56H32.25L32.65 56.35C33.4667 57.1667 34.0625 58.0542 34.4375 59.0125C34.8125 59.9708 35 60.95 35 61.95C35 63.8 34.4458 65.4458 33.3375 66.8875C32.2292 68.3292 30.7833 69.2833 29 69.75Z" fill="#00423C"/>
</svg>
