<svg width="80" height="80" viewBox="0 0 80 80" fill="none" xmlns="http://www.w3.org/2000/svg">
<rect width="80" height="80" rx="8" fill="#AFF8C8"/>
<path d="M56.6663 30.0003V50.0003C56.6663 50.917 56.34 51.7017 55.6872 52.3545C55.0344 53.0073 54.2497 53.3337 53.333 53.3337H26.6663C25.7497 53.3337 24.965 53.0073 24.3122 52.3545C23.6594 51.7017 23.333 50.917 23.333 50.0003V30.0003C23.333 29.0837 23.6594 28.2989 24.3122 27.6462C24.965 26.9934 25.7497 26.667 26.6663 26.667H53.333C54.2497 26.667 55.0344 26.9934 55.6872 27.6462C56.34 28.2989 56.6663 29.0837 56.6663 30.0003ZM26.6663 33.3337H53.333V30.0003H26.6663V33.3337ZM26.6663 40.0003V50.0003H53.333V40.0003H26.6663Z" fill="#00423C"/>
</svg>
