<svg width="124" height="124" viewBox="0 0 124 124" fill="none" xmlns="http://www.w3.org/2000/svg">
<rect x="70" width="54" height="54" rx="27" fill="#AFF8C8"/>
<path d="M91 36V34L91.4125 33.75C91.6875 33.5833 91.9875 33.3375 92.3125 33.0125C92.6375 32.6875 92.9333 32.2708 93.2 31.7625C93.4667 31.2542 93.6 30.6667 93.6 30C93.6 29.8167 93.5875 29.6417 93.5625 29.475C93.5375 29.3083 93.5083 29.15 93.475 29H91V27H92.5C92.15 26.45 91.8125 25.8708 91.4875 25.2625C91.1625 24.6542 91 23.9 91 23C91 21.4667 91.5333 20.1667 92.6 19.1C93.6667 18.0333 94.9667 17.5 96.5 17.5C97.6833 17.5 98.7333 17.825 99.65 18.475C100.567 19.125 101.225 19.9667 101.625 21L99.775 21.775C99.525 21.1083 99.1042 20.5625 98.5125 20.1375C97.9208 19.7125 97.25 19.5 96.5 19.5C95.5333 19.5 94.7083 19.8417 94.025 20.525C93.3417 21.2083 93 22.0333 93 23C93 23.8 93.2 24.4667 93.6 25C94 25.5333 94.4083 26.2 94.825 27H99V29H95.525C95.5583 29.15 95.5792 29.3083 95.5875 29.475C95.5958 29.6417 95.6 29.8167 95.6 30C95.6 30.8333 95.4542 31.5833 95.1625 32.25C94.8708 32.9167 94.5167 33.5 94.1 34H99C99.6667 34 100.175 33.825 100.525 33.475C100.875 33.125 101.117 32.675 101.25 32.125L103 33C102.817 33.9167 102.346 34.6458 101.588 35.1875C100.829 35.7292 99.9667 36 99 36H91Z" fill="#00423C"/>
<rect x="70" y="70" width="54" height="54" rx="27" fill="#AFF8C8"/>
<path d="M91 106V104L91.4125 103.75C91.6875 103.583 91.9875 103.338 92.3125 103.012C92.6375 102.688 92.9333 102.271 93.2 101.762C93.4667 101.254 93.6 100.667 93.6 100C93.6 99.8167 93.5875 99.6417 93.5625 99.475C93.5375 99.3083 93.5083 99.15 93.475 99H91V97H92.5C92.15 96.45 91.8125 95.8708 91.4875 95.2625C91.1625 94.6542 91 93.9 91 93C91 91.4667 91.5333 90.1667 92.6 89.1C93.6667 88.0333 94.9667 87.5 96.5 87.5C97.6833 87.5 98.7333 87.825 99.65 88.475C100.567 89.125 101.225 89.9667 101.625 91L99.775 91.775C99.525 91.1083 99.1042 90.5625 98.5125 90.1375C97.9208 89.7125 97.25 89.5 96.5 89.5C95.5333 89.5 94.7083 89.8417 94.025 90.525C93.3417 91.2083 93 92.0333 93 93C93 93.8 93.2 94.4667 93.6 95C94 95.5333 94.4083 96.2 94.825 97H99V99H95.525C95.5583 99.15 95.5792 99.3083 95.5875 99.475C95.5958 99.6417 95.6 99.8167 95.6 100C95.6 100.833 95.4542 101.583 95.1625 102.25C94.8708 102.917 94.5167 103.5 94.1 104H99C99.6667 104 100.175 103.825 100.525 103.475C100.875 103.125 101.117 102.675 101.25 102.125L103 103C102.817 103.917 102.346 104.646 101.588 105.188C100.829 105.729 99.9667 106 99 106H91Z" fill="#00423C"/>
<rect y="35" width="54" height="54" rx="27" fill="#24EC7E"/>
<path d="M21 71V69L21.4125 68.75C21.6875 68.5833 21.9875 68.3375 22.3125 68.0125C22.6375 67.6875 22.9333 67.2708 23.2 66.7625C23.4667 66.2542 23.6 65.6667 23.6 65C23.6 64.8167 23.5875 64.6417 23.5625 64.475C23.5375 64.3083 23.5083 64.15 23.475 64H21V62H22.5C22.15 61.45 21.8125 60.8708 21.4875 60.2625C21.1625 59.6542 21 58.9 21 58C21 56.4667 21.5333 55.1667 22.6 54.1C23.6667 53.0333 24.9667 52.5 26.5 52.5C27.6833 52.5 28.7333 52.825 29.65 53.475C30.5667 54.125 31.225 54.9667 31.625 56L29.775 56.775C29.525 56.1083 29.1042 55.5625 28.5125 55.1375C27.9208 54.7125 27.25 54.5 26.5 54.5C25.5333 54.5 24.7083 54.8417 24.025 55.525C23.3417 56.2083 23 57.0333 23 58C23 58.8 23.2 59.4667 23.6 60C24 60.5333 24.4083 61.2 24.825 62H29V64H25.525C25.5583 64.15 25.5792 64.3083 25.5875 64.475C25.5958 64.6417 25.6 64.8167 25.6 65C25.6 65.8333 25.4542 66.5833 25.1625 67.25C24.8708 67.9167 24.5167 68.5 24.1 69H29C29.6667 69 30.175 68.825 30.525 68.475C30.875 68.125 31.1167 67.675 31.25 67.125L33 68C32.8167 68.9167 32.3458 69.6458 31.5875 70.1875C30.8292 70.7292 29.9667 71 29 71H21Z" fill="#00423C"/>
</svg>
