<svg width="34" height="34" viewBox="0 0 34 34" fill="none" xmlns="http://www.w3.org/2000/svg">
<path d="M7.08318 25.397C8.46697 24.3389 10.0136 23.5045 11.7229 22.894C13.4323 22.2835 15.2231 21.9783 17.0953 21.9783C18.9675 21.9783 20.7583 22.2835 22.4676 22.894C24.177 23.5045 25.7236 24.3389 27.1074 25.397C28.0571 24.2846 28.7964 23.0229 29.3255 21.612C29.8546 20.2011 30.1192 18.6952 30.1192 17.0943C30.1192 13.4856 28.8507 10.4128 26.3138 7.87584C23.7768 5.3389 20.704 4.07043 17.0953 4.07043C13.4866 4.07043 10.4138 5.3389 7.87682 7.87584C5.33987 10.4128 4.0714 13.4856 4.0714 17.0943C4.0714 18.6952 4.33595 20.2011 4.86505 21.612C5.39414 23.0229 6.13352 24.2846 7.08318 25.397ZM17.0953 18.7223C15.4944 18.7223 14.1446 18.1729 13.0457 17.074C11.9468 15.9751 11.3973 14.6252 11.3973 13.0244C11.3973 11.4235 11.9468 10.0736 13.0457 8.97473C14.1446 7.87584 15.4944 7.3264 17.0953 7.3264C18.6961 7.3264 20.046 7.87584 21.1449 8.97473C22.2438 10.0736 22.7932 11.4235 22.7932 13.0244C22.7932 14.6252 22.2438 15.9751 21.1449 17.074C20.046 18.1729 18.6961 18.7223 17.0953 18.7223ZM17.0953 33.3742C14.8432 33.3742 12.7269 32.9468 10.7461 32.0921C8.76543 31.2374 7.04248 30.0775 5.57729 28.6123C4.1121 27.1471 2.95216 25.4242 2.09747 23.4435C1.24278 21.4627 0.81543 19.3464 0.81543 17.0943C0.81543 14.8423 1.24278 12.7259 2.09747 10.7452C2.95216 8.76445 4.1121 7.0415 5.57729 5.57631C7.04248 4.11113 8.76543 2.95119 10.7461 2.09649C12.7269 1.2418 14.8432 0.814453 17.0953 0.814453C19.3473 0.814453 21.4637 1.2418 23.4444 2.09649C25.4252 2.95119 27.1481 4.11113 28.6133 5.57631C30.0785 7.0415 31.2384 8.76445 32.0931 10.7452C32.9478 12.7259 33.3752 14.8423 33.3752 17.0943C33.3752 19.3464 32.9478 21.4627 32.0931 23.4435C31.2384 25.4242 30.0785 27.1471 28.6133 28.6123C27.1481 30.0775 25.4252 31.2374 23.4444 32.0921C21.4637 32.9468 19.3473 33.3742 17.0953 33.3742ZM17.0953 30.1182C18.5333 30.1182 19.89 29.9079 21.1653 29.4874C22.4405 29.0668 23.6072 28.4631 24.6654 27.6762C23.6072 26.8894 22.4405 26.2857 21.1653 25.8651C19.89 25.4445 18.5333 25.2342 17.0953 25.2342C15.6572 25.2342 14.3006 25.4445 13.0253 25.8651C11.7501 26.2857 10.5833 26.8894 9.52516 27.6762C10.5833 28.4631 11.7501 29.0668 13.0253 29.4874C14.3006 29.9079 15.6572 30.1182 17.0953 30.1182ZM17.0953 15.4663C17.8008 15.4663 18.3841 15.2357 18.8454 14.7744C19.3066 14.3132 19.5373 13.7298 19.5373 13.0244C19.5373 12.3189 19.3066 11.7355 18.8454 11.2743C18.3841 10.813 17.8008 10.5824 17.0953 10.5824C16.3898 10.5824 15.8065 10.813 15.3452 11.2743C14.8839 11.7355 14.6533 12.3189 14.6533 13.0244C14.6533 13.7298 14.8839 14.3132 15.3452 14.7744C15.8065 15.2357 16.3898 15.4663 17.0953 15.4663Z" fill="#24EC7E"/>
</svg>
