<svg width="111" height="22" viewBox="0 0 111 22" fill="none" xmlns="http://www.w3.org/2000/svg">
<g clip-path="url(#clip0_6_992)">
<path d="M0 0.133789H13.9974V3.97581H4.46735V8.6516H12.2114V12.3152H4.46735V17.1394H14.3259V20.9814H0V0.133789Z" fill="white"/>
<path d="M16.4102 0.133789H30.1707V3.97581H20.8792V8.86004H28.5032V12.5236H20.8792V20.9814H16.4118V0.133789H16.4102Z" fill="white"/>
<path d="M31.8672 0.133789H36.3345V12.2251C36.3345 15.5319 37.5552 17.3178 40.415 17.3178C43.2748 17.3178 44.5255 15.5302 44.5255 12.2251V0.133789H48.9929V11.9867C48.9929 17.9131 46.0446 21.1598 40.415 21.1598C34.7854 21.1598 31.8672 17.9131 31.8672 11.9867V0.133789Z" fill="white"/>
<path d="M51.8223 20.9814V0.133789H55.8727L64.719 13.269V0.133789H69.1264V20.9814H65.0459L56.2012 7.84784V20.9814H51.8239H51.8223Z" fill="white"/>
<path d="M72.0732 20.9814V0.133789H79.6672C86.1606 0.133789 90.4779 4.39269 90.4779 10.5276C90.4779 16.6625 86.159 20.9814 79.6672 20.9814H72.0732ZM76.5406 17.2578H79.6672C83.6577 17.2578 85.8922 14.488 85.8922 10.5276C85.8922 6.56717 83.6577 3.85574 79.6672 3.85574H76.5406V17.2578Z" fill="white"/>
<path d="M92.5938 20.9814V0.133789H100.188C106.681 0.133789 110.998 4.39269 110.998 10.5276C110.998 16.6625 106.679 20.9814 100.188 20.9814H92.5938ZM97.0611 17.2578H100.188C104.178 17.2578 106.413 14.488 106.413 10.5276C106.413 6.56717 104.178 3.85574 100.188 3.85574H97.0611V17.2578Z" fill="white"/>
</g>
<defs>
<clipPath id="clip0_6_992">
<rect width="111" height="21.0277" fill="white" transform="translate(0 0.133789)"/>
</clipPath>
</defs>
</svg>
