<svg width="60" height="61" viewBox="0 0 60 61" fill="none" xmlns="http://www.w3.org/2000/svg">
<mask id="mask0_6_1063" style="mask-type:alpha" maskUnits="userSpaceOnUse" x="0" y="0" width="60" height="61">
<circle cx="30" cy="30.4541" r="30" fill="#C4C4C4"/>
</mask>
<g mask="url(#mask0_6_1063)">
<path d="M79.9951 0.454102H-20.0049V60.4541H79.9951V0.454102Z" fill="#1257A9"/>
<path d="M30.5781 49.4211L29.8337 47.1211L29.0892 49.4211H26.667L28.6225 50.8433L27.8781 53.1544L29.8337 51.7322L31.7892 53.1544L31.0448 50.8433L33.0003 49.4211H30.5781Z" fill="#FEE211"/>
<path d="M40.5781 46.7424L39.8337 44.4424L39.0892 46.7424H36.667L38.6225 48.1646L37.8781 50.4757L39.8337 49.0424L41.7892 50.4757L41.0448 48.1646L43.0003 46.7424H40.5781Z" fill="#FEE211"/>
<path d="M20.5781 46.7424L19.8337 44.4424L19.0892 46.7424H16.667L18.6225 48.1646L17.8781 50.4757L19.8337 49.0424L21.7892 50.4757L21.0448 48.1646L23.0003 46.7424H20.5781Z" fill="#FEE211"/>
<path d="M47.8877 39.4211L47.1432 37.1211L46.3877 39.4211H43.9766L45.9321 40.8433L45.1877 43.1544L47.1432 41.7322L49.0988 43.1544L48.3543 40.8433L50.3099 39.4211H47.8877Z" fill="#FEE211"/>
<path d="M13.2679 39.4211L12.5124 37.1211L11.7679 39.4211H9.3457L11.3013 40.8433L10.5568 43.1544L12.5124 41.7322L14.4679 43.1544L13.7235 40.8433L15.679 39.4211H13.2679Z" fill="#FEE211"/>
<path d="M53.0013 29.4201H50.5791L49.8346 27.1201L49.0902 29.4201H46.668L48.6235 30.8423L47.8791 33.1535L49.8346 31.7312L51.7902 33.1535L51.0457 30.8423L53.0013 29.4201Z" fill="#FEE211"/>
<path d="M9.83366 31.7312L11.7892 33.1535L11.0448 30.8423L13.0003 29.4201H10.5781L9.83366 27.1201L9.08921 29.4201H6.66699L8.62255 30.8423L7.8781 33.1535L9.83366 31.7312Z" fill="#FEE211"/>
<path d="M45.9321 20.8433L45.1877 23.1544L47.1432 21.7322L49.0988 23.1544L48.3543 20.8433L50.3099 19.4211H47.8877L47.1432 17.1211L46.3877 19.4211H43.9766L45.9321 20.8433Z" fill="#FEE211"/>
<path d="M12.5124 17.1211L11.7679 19.4211H9.3457L11.3013 20.8433L10.5568 23.1544L12.5124 21.7322L14.4679 23.1544L13.7235 20.8433L15.679 19.4211H13.2679L12.5124 17.1211Z" fill="#FEE211"/>
<path d="M39.8337 9.79883L39.0892 12.0988H36.667L38.6225 13.5322L37.8781 15.8322L39.8337 14.4099L41.7892 15.8322L41.0448 13.5322L43.0003 12.0988H40.5781L39.8337 9.79883Z" fill="#FEE211"/>
<path d="M19.8337 9.79883L19.0892 12.0988H16.667L18.6225 13.5322L17.8781 15.8322L19.8337 14.4099L21.7892 15.8322L21.0448 13.5322L23.0003 12.0988H20.5781L19.8337 9.79883Z" fill="#FEE211"/>
<path d="M29.8337 7.12012L29.0892 9.42012H26.667L28.6225 10.8423L27.8781 13.1535L29.8337 11.7312L31.7892 13.1535L31.0448 10.8423L33.0003 9.42012H30.5781L29.8337 7.12012Z" fill="#FEE211"/>
</g>
</svg>
